<?xml version="1.0" standalone="no"?>
<!DOCTYPE svg PUBLIC "-//W3C//DTD SVG 20010904//EN"
 "http://www.w3.org/TR/2001/REC-SVG-20010904/DTD/svg10.dtd">
<svg version="1.0" xmlns="http://www.w3.org/2000/svg"
 width="669.000000pt" height="669.000000pt" viewBox="0 0 669.000000 669.000000"
 preserveAspectRatio="xMidYMid meet">
<metadata>
Created by potrace 1.14, written by Peter Selinger 2001-2017
</metadata>
<g transform="translate(0.000000,669.000000) scale(0.100000,-0.100000)"
fill="#000000" stroke="none">
<path d="M3755 5660 c-3 -5 -32 -17 -63 -26 -92 -26 -221 -69 -312 -104 -268
-104 -594 -334 -795 -560 -155 -175 -242 -349 -345 -690 -36 -116 -81 -223
-100 -235 -26 -16 -29 13 -10 84 12 41 19 79 17 85 -6 17 -46 -163 -50 -227
l-4 -58 44 43 c29 29 46 39 53 32 13 -13 -124 -224 -146 -224 -17 0 -12 -29
13 -68 11 -18 13 -43 9 -105 l-6 -82 18 65 c10 36 23 74 30 85 10 17 12 13 13
-30 1 -27 4 -63 8 -80 l6 -30 13 43 c7 23 16 42 20 42 3 0 21 -17 39 -37 19
-21 33 -31 34 -22 0 8 4 6 9 -6 5 -11 9 -54 9 -95 1 -41 4 -93 8 -114 l6 -39
17 43 17 44 11 -35 c6 -18 25 -131 42 -249 16 -118 35 -237 41 -265 33 -151
85 -285 151 -391 39 -62 40 -64 29 -64 -14 0 -93 105 -145 193 -52 87 -110
228 -135 328 -10 40 -21 65 -24 56 -10 -25 3 -296 17 -363 15 -69 5 -76 -30
-21 -11 17 -34 52 -50 77 -39 61 -69 136 -89 223 -23 98 -26 102 -21 31 2 -33
8 -69 14 -80 6 -10 25 -57 44 -104 18 -47 45 -107 60 -133 16 -26 28 -52 28
-56 0 -13 164 -184 167 -175 2 5 -14 52 -36 105 -21 52 -42 114 -46 137 -11
68 15 53 76 -44 30 -47 59 -91 64 -97 12 -14 49 -61 90 -113 58 -75 171 -187
226 -224 l55 -38 -8 -84 c-5 -45 -15 -110 -21 -143 l-12 -60 -59 -1 c-52 -1
-63 -5 -81 -28 -18 -22 -29 -26 -74 -26 -37 0 -61 -6 -82 -21 -36 -25 -37 -42
-4 -67 53 -42 18 -43 -56 -2 -30 16 -82 44 -117 62 -34 17 -61 33 -59 34 1 2
29 -5 61 -15 96 -30 148 -5 116 54 -16 30 -62 55 -101 55 -18 0 -52 12 -77 26
-31 18 -52 24 -72 20 -22 -4 -46 6 -108 43 -43 26 -93 53 -111 60 -33 14 -38
30 -21 62 9 16 4 24 -34 51 -35 24 -104 57 -123 58 -2 0 -3 -7 -3 -15 0 -8 18
-33 40 -55 43 -43 49 -60 25 -80 -13 -11 -13 -16 2 -41 9 -16 14 -31 11 -34
-3 -3 -27 6 -54 20 -33 18 -59 25 -79 22 -22 -4 -46 5 -90 30 -33 19 -68 37
-77 40 -10 3 -18 9 -18 13 0 4 -11 11 -24 14 -35 9 -38 31 -10 65 l25 30 -21
41 c-21 40 -21 40 -1 62 l20 21 -51 56 c-28 31 -64 61 -80 68 -32 14 -36 28
-11 37 10 4 28 -1 45 -14 28 -21 98 -28 98 -10 0 6 -9 21 -20 33 -35 37 -37
67 -7 93 46 39 11 73 -60 59 -19 -3 -40 -2 -46 3 -7 5 -29 12 -50 16 -33 6
-41 4 -58 -18 -25 -31 -71 -35 -91 -8 -16 23 -91 22 -117 -2 -14 -13 -30 -14
-96 -7 -44 5 -81 14 -83 20 -6 19 -70 13 -76 -7 -3 -9 -20 -23 -37 -31 -17 -8
-34 -22 -36 -32 -3 -11 -9 -19 -14 -19 -5 0 -9 -6 -9 -14 0 -8 -7 -16 -15 -20
-8 -3 -15 -14 -15 -25 0 -10 -8 -22 -17 -25 -15 -6 -15 -8 -3 -17 11 -6 12
-11 4 -17 -6 -4 -14 -20 -17 -37 -3 -16 -9 -42 -13 -57 -8 -35 2 -78 19 -78 7
0 20 -13 30 -29 9 -16 35 -52 57 -80 32 -40 47 -51 70 -51 16 0 32 5 35 10 12
19 50 10 69 -16 18 -26 18 -27 -3 -69 -27 -55 -27 -58 12 -102 18 -21 46 -58
62 -83 16 -25 37 -54 46 -65 35 -42 34 -105 -2 -105 -20 0 -59 19 -70 33 -3 4
-20 12 -38 17 -41 11 -48 -4 -27 -55 9 -21 16 -39 16 -41 0 -10 -35 -2 -70 16
-50 25 -50 25 -50 -9 0 -20 17 -47 60 -96 55 -62 73 -95 52 -95 -4 0 -13 5
-19 11 -16 16 -33 2 -33 -28 0 -20 -4 -24 -20 -20 -26 7 -25 1 5 -39 33 -44
32 -57 -5 -52 -16 3 -30 1 -30 -3 0 -4 21 -44 48 -89 26 -45 58 -101 71 -124
13 -22 69 -86 125 -142 373 -371 930 -671 1481 -800 105 -25 140 -28 281 -29
107 0 166 4 175 12 8 6 28 13 44 15 29 3 30 1 35 -42 3 -31 10 -45 20 -45 11
0 17 17 22 63 10 87 34 147 76 183 33 29 39 31 88 25 58 -7 164 -44 164 -57 0
-17 -61 -9 -123 17 -62 26 -65 26 -91 9 -38 -25 -55 -64 -69 -156 -10 -68 -9
-82 3 -89 23 -15 318 -11 477 5 250 25 500 73 519 100 8 10 20 13 41 9 34 -7
333 87 353 111 7 8 24 15 38 15 51 0 402 181 594 307 96 62 97 64 113 121 22
77 54 153 55 126 0 -11 -7 -44 -16 -73 -8 -29 -14 -57 -12 -63 6 -16 197 141
332 272 389 379 669 827 835 1343 68 209 105 377 83 377 -5 0 -19 10 -32 23
-53 48 -157 130 -192 151 -21 11 -38 26 -38 32 0 12 54 54 70 54 16 0 12 30
-6 37 -8 3 -26 0 -39 -7 -20 -11 -31 -9 -76 14 -29 14 -59 26 -66 26 -20 0
-26 25 -13 49 6 13 21 21 36 21 17 0 27 8 34 26 14 36 13 47 -10 71 -37 40
-78 267 -80 442 0 23 -1 23 -18 8 -10 -10 -21 -17 -25 -17 -3 0 -23 37 -45 83
-64 136 -133 190 -243 191 -56 1 -72 -3 -108 -27 -24 -16 -45 -26 -49 -23 -3
4 10 23 29 44 89 98 107 119 157 194 34 50 43 108 18 108 -23 0 -28 -18 -9
-29 16 -8 15 -10 -7 -19 -14 -6 -65 -18 -115 -27 -162 -30 -434 -110 -527
-155 -46 -22 -68 -25 -68 -10 0 6 -7 10 -15 10 -18 0 -19 -28 -6 -132 17 -131
34 -338 29 -344 -13 -12 -54 169 -88 381 -12 72 -37 207 -56 300 -20 94 -40
190 -45 214 -23 111 -64 238 -114 346 -59 130 -82 173 -141 260 -33 49 -77
118 -98 152 -38 64 -141 165 -271 267 -74 58 -300 206 -315 206 -4 0 -32 11
-62 25 -44 21 -68 25 -145 25 -50 0 -95 -4 -98 -10z m1650 -1849 c-13 -11
-215 -24 -215 -13 0 19 18 22 119 22 60 0 101 -4 96 -9z m-2594 -467 c34 -41
272 -237 332 -273 37 -22 37 -24 21 -43 -10 -10 -58 -48 -106 -84 -48 -37 -88
-70 -88 -74 0 -17 30 -18 62 -3 39 19 135 91 162 122 24 27 36 26 94 -3 26
-13 66 -29 90 -36 23 -7 42 -16 42 -19 0 -4 -58 -28 -129 -55 -157 -58 -168
-65 -152 -94 12 -23 37 -29 43 -12 2 6 15 12 30 14 15 1 33 8 41 14 11 9 21 0
52 -49 42 -64 71 -80 110 -59 31 16 47 57 45 112 -3 66 -2 68 27 68 18 0 41
-13 66 -37 l40 -38 -6 33 c-4 21 -3 32 5 32 30 0 148 -153 189 -245 25 -57 49
-238 52 -392 3 -202 36 -131 37 82 1 106 2 117 14 95 22 -40 55 -188 62 -277
l7 -83 -127 -125 c-69 -69 -128 -125 -130 -125 -5 0 -382 201 -442 236 -83 48
-327 225 -340 246 -11 18 -53 221 -47 231 6 11 33 9 33 -3 0 -5 5 -10 10 -10
6 0 10 9 10 21 0 16 -4 19 -20 14 -35 -11 -60 5 -85 55 -14 27 -25 54 -25 60
0 25 33 6 67 -40 39 -52 59 -65 48 -30 -12 38 26 10 46 -34 l19 -41 -6 45 c-9
66 -35 119 -94 194 -52 67 -70 83 -50 46 6 -11 8 -20 5 -20 -14 0 -183 91
-206 112 -35 30 -58 125 -65 266 -10 185 11 219 145 232 70 6 89 2 112 -26z
m-41 -587 c80 -39 108 -62 86 -70 -36 -14 -97 17 -199 98 -53 42 -49 64 6 31
23 -15 71 -41 107 -59z m645 -17 c7 -11 -12 -40 -26 -40 -13 0 -39 31 -34 41
8 12 52 11 60 -1z m-2708 -372 c-3 -8 -6 -5 -6 6 -1 11 2 17 5 13 3 -3 4 -12
1 -19z m1032 -479 c18 -11 31 -22 28 -25 -6 -7 -77 28 -77 38 0 13 12 10 49
-13z m1184 -126 l-5 -32 -30 15 c-25 13 -29 20 -23 42 3 14 15 38 26 53 10 15
20 33 20 41 1 7 5 -9 9 -37 5 -27 6 -64 3 -82z m-247 -160 c-7 -7 -26 7 -26
19 0 6 6 6 15 -2 9 -7 13 -15 11 -17z m940 -396 c8 -71 13 -131 11 -134 -3 -2
-14 21 -26 51 -26 70 -36 188 -25 302 l8 89 8 -90 c4 -49 15 -148 24 -218z
m-1652 -49 c15 -21 14 -24 -4 -42 -19 -19 -20 -19 -40 -1 -20 18 -26 45 -13
58 13 14 42 6 57 -15z m1621 -608 c9 -52 19 -111 21 -130 l4 -35 -15 33 c-47
101 -68 282 -63 522 5 263 22 235 30 -50 4 -158 12 -279 23 -340z m950 350
c-3 -5 -10 -10 -16 -10 -5 0 -9 5 -9 10 0 6 7 10 16 10 8 0 12 -4 9 -10z m5
-56 c0 -8 -4 -12 -10 -9 -5 3 -10 10 -10 16 0 5 5 9 10 9 6 0 10 -7 10 -16z
m10 -64 c0 -11 -4 -20 -9 -20 -5 0 -11 9 -14 20 -3 13 0 20 9 20 8 0 14 -9 14
-20z m0 -65 c0 -8 -4 -15 -10 -15 -5 0 -10 7 -10 15 0 8 5 15 10 15 6 0 10 -7
10 -15z m-1054 -129 c-21 -60 -112 -243 -127 -251 -6 -4 -15 -3 -20 2 -14 14
36 135 126 303 l30 55 3 -32 c2 -17 -4 -52 -12 -77z m754 94 c0 -5 -2 -10 -4
-10 -3 0 -8 5 -11 10 -3 6 -1 10 4 10 6 0 11 -4 11 -10z m300 -20 c0 -5 -2
-10 -4 -10 -3 0 -8 5 -11 10 -3 6 -1 10 4 10 6 0 11 -4 11 -10z m10 -30 c0 -5
-4 -10 -10 -10 -5 0 -10 5 -10 10 0 6 5 10 10 10 6 0 10 -4 10 -10z m-320 -16
c0 -8 -4 -12 -10 -9 -5 3 -10 10 -10 16 0 5 5 9 10 9 6 0 10 -7 10 -16z m330
-50 c0 -8 -4 -14 -9 -14 -11 0 -22 26 -14 34 9 9 23 -3 23 -20z m-332 -15 c-2
-6 -8 -10 -13 -10 -5 0 -11 4 -13 10 -2 6 4 11 13 11 9 0 15 -5 13 -11z m340
-40 c-2 -6 -8 -10 -13 -10 -5 0 -11 4 -13 10 -2 6 4 11 13 11 9 0 15 -5 13
-11z m-348 -29 c0 -5 -7 -10 -15 -10 -8 0 -15 5 -15 10 0 6 7 10 15 10 8 0 15
-4 15 -10z m351 -33 c-13 -13 -26 -3 -16 12 3 6 11 8 17 5 6 -4 6 -10 -1 -17z
m-361 -38 c0 -11 -4 -17 -10 -14 -5 3 -10 13 -10 21 0 8 5 14 10 14 6 0 10 -9
10 -21z m371 -12 c-1 -12 -15 -9 -19 4 -3 6 1 10 8 8 6 -3 11 -8 11 -12z
m-379 -72 c0 -5 -5 -11 -11 -13 -6 -2 -11 4 -11 13 0 9 5 15 11 13 6 -2 11 -8
11 -13z m0 -90 c0 -5 -5 -11 -11 -13 -6 -2 -11 4 -11 13 0 9 5 15 11 13 6 -2
11 -8 11 -13z"/>
<path d="M2960 2317 c0 -20 4 -38 9 -42 6 -3 7 10 4 32 -8 50 -13 55 -13 10z"/>
<path d="M3014 2252 c8 -14 66 -43 66 -33 0 4 -12 14 -27 21 -16 8 -32 16 -37
19 -5 2 -6 -1 -2 -7z"/>
<path d="M3330 2110 c0 -5 6 -10 14 -10 8 0 18 5 21 10 3 6 -3 10 -14 10 -12
0 -21 -4 -21 -10z"/>
<path d="M3381 2106 c2 -2 24 -6 49 -10 31 -4 40 -3 30 4 -13 9 -89 15 -79 6z"/>
<path d="M2051 3504 c0 -11 3 -14 6 -6 3 7 2 16 -1 19 -3 4 -6 -2 -5 -13z"/>
<path d="M732 1488 c7 -13 15 -25 18 -28 3 -3 14 -23 25 -44 17 -35 20 -37 23
-17 3 17 8 21 25 15 16 -4 8 8 -28 45 -53 55 -85 69 -63 29z"/>
</g>
</svg>
